<?xml version="1.0" encoding="UTF-8" standalone="no"?>
<!-- Created with Inkscape (http://www.inkscape.org/) -->

<svg
   xmlns:dc="http://purl.org/dc/elements/1.1/"
   xmlns:cc="http://creativecommons.org/ns#"
   xmlns:rdf="http://www.w3.org/1999/02/22-rdf-syntax-ns#"
   xmlns:svg="http://www.w3.org/2000/svg"
   xmlns="http://www.w3.org/2000/svg"
   xmlns:sodipodi="http://sodipodi.sourceforge.net/DTD/sodipodi-0.dtd"
   xmlns:inkscape="http://www.inkscape.org/namespaces/inkscape"
   width="694.74719mm"
   height="694.74719mm"
   viewBox="0 0 2461.7027 2461.7026"
   id="svg4185"
   version="1.1"
   inkscape:version="0.91 r13725"
   sodipodi:docname="design.svg">
  <defs
     id="defs4187" />
  <sodipodi:namedview
     id="base"
     pagecolor="#ffffff"
     bordercolor="#666666"
     borderopacity="1.0"
     inkscape:pageopacity="0.0"
     inkscape:pageshadow="2"
     inkscape:zoom="0.12471043"
     inkscape:cx="1280.4001"
     inkscape:cy="992.24719"
     inkscape:document-units="px"
     inkscape:current-layer="layer1"
     showgrid="false"
     fit-margin-top="0"
     fit-margin-left="0"
     fit-margin-right="0"
     fit-margin-bottom="0"
     inkscape:window-width="1280"
     inkscape:window-height="661"
     inkscape:window-x="0"
     inkscape:window-y="31"
     inkscape:window-maximized="1" />
  <metadata
     id="metadata4190">
    <rdf:RDF>
      <cc:Work
         rdf:about="">
        <dc:format>image/svg+xml</dc:format>
        <dc:type
           rdf:resource="http://purl.org/dc/dcmitype/StillImage" />
        <dc:title></dc:title>
      </cc:Work>
    </rdf:RDF>
  </metadata>
  <g
     inkscape:label="Layer 1"
     inkscape:groupmode="layer"
     id="layer1"
     transform="translate(879.31201,891.49023)">
    <path
       sodipodi:nodetypes="acccscsccca"
       inkscape:connector-curvature="0"
       id="path4238-7"
       d="m 372.60139,-660.86386 c -289.357442,0 -609.48133,99.8452 -834.54275,238.93415 l 0.19244,0 0,932.71642 c 63.99982,133.27501 164.7573,351.40228 328.04656,517.04119 146.470008,148.5775 352.3953,291.5432 506.34848,367.8883 153.95317,-76.3451 359.87768,-219.3108 506.3477,-367.8883 C 1042.2836,862.18899 1143.0408,644.06172 1207.0403,510.78671 l 0,-932.71642 0.1925,0 C 982.16622,-561.01866 662.04152,-660.86386 372.682,-660.86386 Z"
       style="color:#000000;clip-rule:nonzero;display:inline;overflow:visible;visibility:visible;opacity:1;isolation:auto;mix-blend-mode:normal;color-interpolation:sRGB;color-interpolation-filters:linearRGB;solid-color:#000000;solid-opacity:1;fill:#2d3e52;fill-opacity:1;fill-rule:nonzero;stroke:#ff0000;stroke-width:1.9010781;stroke-linecap:round;stroke-linejoin:round;stroke-miterlimit:4;stroke-dasharray:none;stroke-dashoffset:0;stroke-opacity:1;color-rendering:auto;image-rendering:auto;shape-rendering:auto;text-rendering:auto;enable-background:accumulate"
       inkscape:export-xdpi="100"
       inkscape:export-ydpi="100" />
    <path
       style="fill:#e1e2e7;fill-opacity:1;fill-rule:evenodd;stroke:none;stroke-width:1px;stroke-linecap:butt;stroke-linejoin:miter;stroke-opacity:1"
       d="m 126.77328,436.55816 264.49691,-122.0973 224.55716,103.65072 -65.30011,62.24283 0,741.06269 -177.92169,99.3513 -180.82135,-91.8505 -65.01092,-792.35974 z"
       id="path4242-5"
       inkscape:connector-curvature="0"
       inkscape:export-xdpi="100"
       inkscape:export-ydpi="100" />
    <path
       sodipodi:nodetypes="ccaacaaaccccaccc"
       inkscape:connector-curvature="0"
       id="path4177-5"
       d="m 465.70327,-647.69415 -15.48101,378.41891 c 0,0 64.77011,34.49012 98.42866,48.99211 43.38994,18.69481 86.71798,39.62697 133.05438,48.84289 103.50972,20.58618 316.34502,12.9218 316.34502,12.9218 0,0 -23.4648,464.02843 -52.4013,694.31358 -1.7106,13.5988 -2.7371,27.51377 -7.1443,40.49166 -38.5648,113.5569 -115.2755,210.51511 -166.1655,319.10809 -66.5221,141.94751 -181.58097,433.81661 -181.58097,433.81661 l 0,-835.37975 252.47027,-222.42369 0,-52.40093 c 0,0 -147.34693,39.42606 -221.51189,57.16463 -76.50316,18.29751 -230.44644,50.80139 -230.44644,50.80139 l 0,-974.6673 z"
       style="fill:none;fill-rule:evenodd;stroke:none;stroke-width:0.1;stroke-linecap:round;stroke-linejoin:round;stroke-miterlimit:4;stroke-dasharray:none;stroke-opacity:1"
       inkscape:export-xdpi="100"
       inkscape:export-ydpi="100" />
    <path
       style="fill:#2d3e52;fill-opacity:1;fill-rule:evenodd;stroke:none;stroke-width:0.1;stroke-linecap:butt;stroke-linejoin:miter;stroke-miterlimit:4;stroke-dasharray:none;stroke-opacity:1"
       d="M 126.77328,436.55816 372.62453,323.01547 -60.688402,219.00713 l 0,52.40093 c 62.4865304,55.04991 124.97306,110.10018 187.461682,165.1501 z"
       id="path4197-6"
       inkscape:connector-curvature="0"
       sodipodi:nodetypes="ccccc"
       inkscape:export-xdpi="100"
       inkscape:export-ydpi="100" />
    <path
       style="fill:#2d3e52;fill-opacity:1;fill-rule:evenodd;stroke:none;stroke-width:0.1;stroke-linecap:butt;stroke-linejoin:miter;stroke-miterlimit:4;stroke-dasharray:none;stroke-opacity:1"
       d="m 342.44321,529.54271 1.19757,25.90276 28.97179,6.99669 c 0,0 11.44672,18.52166 18.6636,15.07427 l 0,-37.39728 0,-252.85346 242.61118,120.91923 -65.3001,62.24281 -18.05428,727.83117 -159.2555,91.9459 -18.6649,0 -180.82239,-84.445 0,-259.02641 c 0,0 180.82655,16.82973 254.31874,13.62733 10.89462,-0.47513 22.48984,-9.38163 26.15094,-19.65203 10.42729,-29.2363 0,-133.97989 0,-133.97989 l -23.62447,-10.5806 c 0,0 -27.41352,5.05262 -76.02282,-3.36856 -48.60983,-8.42121 -96.61034,-29.47412 -96.61034,-29.47412 0,0 3.92194,-18.50509 36.07866,-11.35952 32.15464,7.14562 52.69768,16.9708 70.85885,16.07765 18.16298,-0.89353 62.77181,0.78889 86.93824,-16.07765 10.21613,-7.13072 25.01032,-22.03235 19.05655,-32.15519 -5.95611,-10.12282 -64.31214,-17.26846 -80.98447,-21.43673 -16.67259,-4.16829 -104.20715,-16.07761 -104.20715,-16.07761 0,0 160.18052,-1.78706 166.73191,-5.35915 6.54878,-3.57286 25.0085,-14.88677 11.31331,-27.98689 -13.69519,-13.10038 -90.90205,-11.9095 -100.03868,-21.43694 -9.13688,-9.52744 -9.13818,-12.799 -12.165,-22.09208 -3.15347,-9.68615 0,-27.33162 -10.16516,-28.82017 -10.12302,-1.48852 -22.33016,-7.14575 -22.33016,-11.61158 1.44515,-21.25895 3.46606,-14.21545 5.35928,-35.42695 z"
       id="path4201-2"
       inkscape:connector-curvature="0"
       sodipodi:nodetypes="cccccccccccccssccscscacsccsssscc"
       inkscape:export-xdpi="100"
       inkscape:export-ydpi="100" />
    <path
       inkscape:connector-curvature="0"
       style="color:#000000;clip-rule:nonzero;display:inline;overflow:visible;visibility:visible;opacity:1;isolation:auto;mix-blend-mode:normal;color-interpolation:sRGB;color-interpolation-filters:linearRGB;solid-color:#000000;solid-opacity:1;fill:#e1e2e7;fill-opacity:1;fill-rule:nonzero;stroke:none;stroke-width:0.10885327;stroke-linecap:round;stroke-linejoin:round;stroke-miterlimit:4;stroke-dasharray:none;stroke-dashoffset:0;stroke-opacity:1;color-rendering:auto;image-rendering:auto;shape-rendering:auto;text-rendering:auto;enable-background:accumulate"
       d="m 380.03099,-655.85129 a 545.36295,479.86167 0 0 0 -481.13608,475.90067 545.36295,479.86167 0 0 0 6.571928,70.2507 l 234.553292,0 A 545.35276,489.37891 0 0 1 120.4159,-239.50781 545.35276,489.37891 0 0 1 380.03099,-655.85129 Z"
       id="path4209-9"
       inkscape:export-xdpi="100"
       inkscape:export-ydpi="100" />
    <path
       style="fill:#e1e2e7;fill-opacity:1;fill-rule:evenodd;stroke:none;stroke-width:1px;stroke-linecap:butt;stroke-linejoin:miter;stroke-opacity:1"
       d="m 590.75825,1329.2115 0,-835.37975 252.47027,-222.42369 0,-52.40093 -40.4721,10.75266 -10.8967,41.64827 -241.33248,208.94635 0,812.05729 40.23101,36.7998 z"
       id="path4244-1"
       inkscape:connector-curvature="0"
       inkscape:export-xdpi="100"
       inkscape:export-ydpi="100" />
    <path
       style="fill:#e1e2e7;fill-opacity:1;fill-rule:evenodd;stroke:#2d3e52;stroke-width:19.01077843;stroke-linecap:round;stroke-linejoin:round;stroke-miterlimit:4;stroke-dasharray:none;stroke-opacity:1"
       d="m 316.83736,-647.69415 15.48205,378.41891 c 0,0 -64.77141,34.49012 -98.42971,48.99211 -43.38889,18.69481 -86.71615,39.62697 -133.05489,48.84289 -103.5081216,20.58618 -316.34525,12.9218 -316.34525,12.9218 0,0 23.46506,464.02843 52.40122,694.31358 1.71118,13.5988 2.73789,27.51377 7.1464,40.49166 C -117.3993,689.8437 -40.688882,786.80191 10.201388,895.39489 76.723508,1037.3424 191.7842,1329.2115 191.7842,1329.2115 l 0,-835.37975 -252.472602,-222.42369 0,-52.40093 c 0,0 147.34874,39.42606 221.513702,57.16463 76.50107,18.29751 230.44489,50.80139 230.44489,50.80139 l 0,-974.6673 z"
       id="path4171-2"
       inkscape:connector-curvature="0"
       sodipodi:nodetypes="ccaacaaaccccaccc"
       inkscape:export-xdpi="100"
       inkscape:export-ydpi="100" />
    <path
       style="fill:#2d3e52;fill-opacity:1;fill-rule:evenodd;stroke:#2d3e52;stroke-width:19.01077843px;stroke-linecap:round;stroke-linejoin:round;stroke-opacity:1"
       d="m 391.27019,-647.69415 74.43308,0 -15.48101,378.41891 -58.95207,4.76369 z"
       id="path4246-7"
       inkscape:connector-curvature="0"
       inkscape:export-xdpi="100"
       inkscape:export-ydpi="100" />
    <path
       style="fill:#e1e2e7;fill-opacity:1;fill-rule:evenodd;stroke:none;stroke-width:0.1;stroke-linecap:round;stroke-linejoin:round;stroke-miterlimit:4;stroke-dasharray:none;stroke-opacity:1"
       d="m 795.21322,-126.63434 c 86.8737,7.59084 202.8542,-31.89209 202.8542,-31.89209 0,0 -213.3632,10.14488 -316.35042,-12.92127 -81.75217,-18.31021 -152.55796,-56.26672 -231.50982,-97.83875 0.41583,-0.63111 92.82441,120.61675 345.00604,142.65211 z"
       id="path4203-0"
       inkscape:connector-curvature="0"
       sodipodi:nodetypes="scacs"
       inkscape:export-xdpi="100"
       inkscape:export-ydpi="100" />
    <path
       style="fill:#dbe4e5;fill-opacity:1;fill-rule:evenodd;stroke:none;stroke-width:1px;stroke-linecap:butt;stroke-linejoin:miter;stroke-opacity:1"
       d="m 97.815788,1141.3836 58.965872,43.4818 50.89027,28.3143 14.31699,155.1901 -100.94394,-59.7903 z"
       id="path4252-9"
       inkscape:connector-curvature="0"
       sodipodi:nodetypes="cccccc"
       inkscape:export-xdpi="100"
       inkscape:export-ydpi="100" />
    <path
       style="fill:none;fill-rule:evenodd;stroke:#2d3e52;stroke-width:19.01077843px;stroke-linecap:round;stroke-linejoin:round;stroke-opacity:1"
       d="m 191.7842,1126.4976 0,164.0097"
       id="path4254-3"
       inkscape:connector-curvature="0"
       inkscape:export-xdpi="100"
       inkscape:export-ydpi="100" />
    <path
       style="fill:#2d3e52;fill-opacity:1;fill-rule:evenodd;stroke:none;stroke-width:1px;stroke-linecap:butt;stroke-linejoin:miter;stroke-opacity:1"
       d="m 590.75825,1168.7844 0,121.4204 c 0,0 30.42422,-97.4438 63.6763,-158.0062 33.25183,-60.5621 -63.6763,36.5858 -63.6763,36.5858 z"
       id="path4258-6"
       inkscape:connector-curvature="0"
       sodipodi:nodetypes="cczc"
       inkscape:export-xdpi="100"
       inkscape:export-ydpi="100" />
    <path
       style="fill:#2d3e52;fill-opacity:1;fill-rule:evenodd;stroke:none;stroke-width:1px;stroke-linecap:butt;stroke-linejoin:miter;stroke-opacity:1"
       d="m 252.29559,-558.1226 34.90033,-33.15875 15.37594,-12.80054 10.27673,-8.02937 0,59.6132 z"
       id="path4262-0"
       inkscape:connector-curvature="0"
       inkscape:export-xdpi="100"
       inkscape:export-ydpi="100" />
    <path
       inkscape:connector-curvature="0"
       id="path4264-6"
       d="m 526.35925,-560.2278 -34.90033,-33.15883 -15.37595,-12.80053 -10.2775,-8.02938 -1.19757,59.61323 z"
       style="fill:#2d3e52;fill-opacity:1;fill-rule:evenodd;stroke:none;stroke-width:1px;stroke-linecap:butt;stroke-linejoin:miter;stroke-opacity:1"
       sodipodi:nodetypes="cccccc"
       inkscape:export-xdpi="100"
       inkscape:export-ydpi="100" />
  </g>
</svg>
