<?xml version="1.0" encoding="UTF-8" standalone="no"?>
<!-- Created with Inkscape (http://www.inkscape.org/) -->

<svg
   xmlns:dc="http://purl.org/dc/elements/1.1/"
   xmlns:cc="http://creativecommons.org/ns#"
   xmlns:rdf="http://www.w3.org/1999/02/22-rdf-syntax-ns#"
   xmlns:svg="http://www.w3.org/2000/svg"
   xmlns="http://www.w3.org/2000/svg"
   xmlns:sodipodi="http://sodipodi.sourceforge.net/DTD/sodipodi-0.dtd"
   xmlns:inkscape="http://www.inkscape.org/namespaces/inkscape"
   width="694.74719mm"
   height="694.74719mm"
   viewBox="0 0 2461.7027 2461.7026"
   id="svg4185"
   version="1.1"
   inkscape:version="0.91 r13725"
   sodipodi:docname="production.svg">
  <defs
     id="defs4187" />
  <sodipodi:namedview
     id="base"
     pagecolor="#ffffff"
     bordercolor="#666666"
     borderopacity="1.0"
     inkscape:pageopacity="0.0"
     inkscape:pageshadow="2"
     inkscape:zoom="0.12568473"
     inkscape:cx="1567.8392"
     inkscape:cy="910.18906"
     inkscape:document-units="px"
     inkscape:current-layer="layer1"
     showgrid="false"
     fit-margin-top="0"
     fit-margin-left="0"
     fit-margin-right="0"
     fit-margin-bottom="0"
     inkscape:window-width="1280"
     inkscape:window-height="661"
     inkscape:window-x="0"
     inkscape:window-y="31"
     inkscape:window-maximized="1" />
  <metadata
     id="metadata4190">
    <rdf:RDF>
      <cc:Work
         rdf:about="">
        <dc:format>image/svg+xml</dc:format>
        <dc:type
           rdf:resource="http://purl.org/dc/dcmitype/StillImage" />
        <dc:title />
      </cc:Work>
    </rdf:RDF>
  </metadata>
  <g
     inkscape:label="Layer 1"
     inkscape:groupmode="layer"
     id="layer1"
     transform="translate(879.31201,891.49023)">
    <rect
       style="color:#000000;clip-rule:nonzero;display:inline;overflow:visible;visibility:visible;opacity:1;isolation:auto;mix-blend-mode:normal;color-interpolation:sRGB;color-interpolation-filters:linearRGB;solid-color:#000000;solid-opacity:1;fill:#2d3e52;fill-opacity:1;fill-rule:nonzero;stroke:none;stroke-width:1;stroke-linecap:round;stroke-linejoin:round;stroke-miterlimit:4;stroke-dasharray:none;stroke-dashoffset:0;stroke-opacity:1;color-rendering:auto;image-rendering:auto;shape-rendering:auto;text-rendering:auto;enable-background:accumulate"
       id="rect4446"
       width="2461.7026"
       height="2461.7026"
       x="-879.31201"
       y="-891.49023"
       inkscape:export-xdpi="109.68018"
       inkscape:export-ydpi="109.68018" />
    <g
       id="g4441"
       transform="matrix(2.0227672,0,0,2.0227672,-4571.143,-1301.8766)"
       inkscape:export-xdpi="100"
       inkscape:export-ydpi="100">
      <path
         inkscape:connector-curvature="0"
         id="path4439"
         d="m 2433.6318,390.39283 c -117.1526,0 -243.242,39.39454 -334.3563,95.70361 a 25.588262,25.588262 0 0 0 -12.0786,22.61595 l 0,357.80007 a 25.588262,25.588262 0 0 0 2.5271,11.07955 c 24.4308,50.87396 64.0044,137.75629 130.9842,205.69929 58.9781,59.8268 139.1052,115.4475 201.5583,146.4182 a 25.588262,25.588262 0 0 0 22.7305,0 c 62.4539,-30.9707 142.5802,-86.5914 201.5591,-146.4182 66.9787,-67.943 106.5534,-154.82533 130.9834,-205.69929 a 25.588262,25.588262 0 0 0 2.5271,-11.07955 l 0,-357.5002 a 25.588262,25.588262 0 0 0 -12.0786,-22.91582 c -91.1166,-56.30879 -217.2037,-95.70361 -334.3562,-95.70361 z"
         style="color:#000000;font-style:normal;font-variant:normal;font-weight:normal;font-stretch:normal;font-size:medium;line-height:normal;font-family:sans-serif;text-indent:0;text-align:start;text-decoration:none;text-decoration-line:none;text-decoration-style:solid;text-decoration-color:#000000;letter-spacing:normal;word-spacing:normal;text-transform:none;direction:ltr;block-progression:tb;writing-mode:lr-tb;baseline-shift:baseline;text-anchor:start;white-space:normal;clip-rule:nonzero;display:inline;overflow:visible;visibility:visible;opacity:1;isolation:auto;mix-blend-mode:normal;color-interpolation:sRGB;color-interpolation-filters:linearRGB;solid-color:#000000;solid-opacity:1;fill:#e1e2e7;fill-opacity:1;fill-rule:nonzero;stroke:none;stroke-width:7;stroke-linecap:round;stroke-linejoin:round;stroke-miterlimit:4;stroke-dasharray:none;stroke-dashoffset:0;stroke-opacity:1;color-rendering:auto;image-rendering:auto;shape-rendering:auto;text-rendering:auto;enable-background:accumulate" />
      <path
         inkscape:connector-curvature="0"
         id="rect4147-3"
         d="m 2433.6376,443.40234 c 100.6439,0 213.8028,34.54346 295.2634,81.74001 l 0,337.02593 c -24.8146,51.72838 -61.7195,129.16014 -118.7762,187.03832 -50.3072,51.0314 -121.5995,101.1276 -176.4872,130.1559 -54.8881,-29.0283 -126.1793,-79.1245 -176.4873,-130.1559 -57.057,-57.87818 -93.9608,-135.30994 -118.7762,-187.03832 l 0,-337.02593 c 81.4583,-47.19632 194.6195,-81.74001 295.2635,-81.74001 z"
         style="color:#000000;font-style:normal;font-variant:normal;font-weight:normal;font-stretch:normal;font-size:medium;line-height:normal;font-family:sans-serif;text-indent:0;text-align:start;text-decoration:none;text-decoration-line:none;text-decoration-style:solid;text-decoration-color:#000000;letter-spacing:normal;word-spacing:normal;text-transform:none;direction:ltr;block-progression:tb;writing-mode:lr-tb;baseline-shift:baseline;text-anchor:start;white-space:normal;clip-rule:nonzero;display:inline;overflow:visible;visibility:visible;opacity:1;isolation:auto;mix-blend-mode:normal;color-interpolation:sRGB;color-interpolation-filters:linearRGB;solid-color:#000000;solid-opacity:1;fill:#e1e2e7;fill-opacity:1;fill-rule:nonzero;stroke:none;stroke-width:7;stroke-linecap:round;stroke-linejoin:round;stroke-miterlimit:4;stroke-dasharray:none;stroke-dashoffset:0;stroke-opacity:1;color-rendering:auto;image-rendering:auto;shape-rendering:auto;text-rendering:auto;enable-background:accumulate" />
      <path
         inkscape:connector-curvature="0"
         id="path4435"
         d="m 2362.3093,1171.7245 c -1.4903,-0.8447 -1.575,-9.1362 -1.575,-154.2656 l 0,-153.37288 -48.6249,-42.85333 -48.6249,-42.85333 0.2499,-12.30405 0.2499,-12.30405 2.2691,-0.26492 c 1.248,-0.1457 14.8155,3.02114 30.15,7.03743 43.8065,11.47344 63.987,16.34313 102.1478,24.649 19.5432,4.25365 36.2419,7.89728 37.1081,8.09695 1.4961,0.34483 1.575,-8.83752 1.575,-183.15277 l 0,-183.5157 -10.7278,0 -10.7279,0 0.4446,8.325 c 1.3612,25.4879 5.456,134.3926 5.0891,135.3488 -0.6195,1.6142 -31.1862,16.924 -49.8078,24.947 -26.5857,11.4542 -38.0697,14.7245 -60.5081,17.2308 -16.822,1.879 -60.8581,3.44892 -81.8871,2.91936 l -17.775,-0.44766 0,2.08735 c 0,3.40823 4.38,76.11301 6.3128,104.78936 4.6462,68.93104 9.5037,124.78111 13.5306,155.57037 1.5497,11.84875 2.3965,15.31538 5.9359,24.3 6.0127,15.26267 16.1426,34.70581 34.5319,66.27963 18.1201,31.11151 25.2492,45.10564 38.7423,76.05004 13.2963,30.493 32.4159,76.7306 31.9298,77.2167 -0.5582,0.5581 -18.7866,-13.1144 -33.7833,-25.3395 -52.8039,-43.0455 -84.7506,-79.369 -118.0538,-134.22724 -11.7868,-19.41575 -20.9984,-36.46601 -37.1866,-68.83094 l -14.8596,-29.70847 0.01,-168.9803 0.01,-168.9803 14.6183,-7.8386 c 49.7318,-26.6674 108.2229,-47.9655 166.2523,-60.5369 10.3444,-2.241 19.1068,-4.0745 19.4722,-4.0745 0.3653,0 -2.3441,2.0654 -6.021,4.5899 -44.6295,30.6411 -72.9079,74.7558 -80.0072,124.8122 -0.924,6.5151 -1.419,25.207 -0.6869,25.9391 0.6151,0.6151 44.9504,-1.2957 55.7298,-2.4019 9.8803,-1.0139 21.7283,-2.9613 26.8557,-4.4143 l 3.1768,-0.9001 -0.7782,-9.6874 c -0.9324,-11.6072 0.4108,-30.8211 3.0681,-43.8875 7.8057,-38.3823 30.6405,-76.6596 60.6949,-101.7413 l 8.578,-7.1587 -0.5573,-7.3456 c -0.9166,-12.0808 -3.687,-11.1044 31.5084,-11.1044 26.3482,0 30.2316,0.1775 31.4939,1.4398 1.1981,1.1982 1.3409,2.7498 0.8507,9.2437 l -0.5891,7.8038 4.8386,4.1173 c 4.8153,4.0975 4.886,4.1225 14.7385,5.2214 72.2867,8.062 156.9119,34.7734 223.425,70.5227 l 13.725,7.3769 0,168.93987 0,168.93988 -14.7444,29.55601 c -20.8695,41.8339 -31.452,60.69999 -49.6079,88.43865 -10.889,16.63617 -24.96,35.58654 -36.4628,49.10664 -17.0117,19.9951 -46.7453,47.8897 -75.0063,70.3671 -12.6459,10.0579 -12.751,10.172 -16.1827,17.55 -4.7303,10.17 -8.0475,18.4271 -14.192,35.3263 l -5.2358,14.4 -0.034,-152.6394 -0.034,-152.63938 48.5445,-42.66063 48.5445,-42.66063 0.055,-10.125 c 0.034,-6.27092 -0.2914,-10.125 -0.8559,-10.125 -1.7259,0 -13.8288,3.58042 -14.416,4.26468 -0.3234,0.37692 -1.3172,3.52032 -2.2083,6.98532 -0.8912,3.465 -1.973,6.99191 -2.404,7.83759 -0.4309,0.84566 -21.432,19.41445 -46.6691,41.26398 l -45.8855,39.7264 -0.2278,138.23417 -0.2279,138.2342 -30.0554,17.3768 c -27.4248,15.8559 -30.4266,17.3769 -34.2948,17.3769 -3.6022,0 -9.1248,-2.285 -36.7496,-15.2051 l -32.5103,-15.2051 -0.2449,16.2213 c -0.2278,15.0809 -0.3715,16.3044 -2.045,17.4031 -1.259,0.8266 -2.2734,0.9134 -3.375,0.289 z m 103.5389,-131.2964 c 3.0771,-1.3966 4.2564,-2.6294 5.7922,-6.0552 1.7023,-3.7971 1.9291,-5.9377 1.9341,-18.2516 0,-7.6725 -0.3145,-18.31585 -0.7057,-23.65186 l -0.7113,-9.70182 -3.5619,-1.81711 c -2.9459,-1.5029 -5.693,-1.8686 -15.8865,-2.11488 -13.5954,-0.32846 -25.3819,-2.39376 -39.5363,-6.92781 -16.438,-5.26558 -18.8978,-7.06702 -13.1966,-9.66465 3.6555,-1.66555 8.2396,-1.19401 20.6081,2.11975 9.8693,2.64419 13.2015,3.13653 21.2958,3.14651 11.6305,0.0143 22.1432,-1.86603 27.2876,-4.88084 5.3915,-3.15962 9.4666,-8.0604 9.4666,-11.38456 0,-2.2805 -0.5334,-2.9375 -3.3356,-4.10833 -4.346,-1.81586 -25.3196,-6.05248 -45.7144,-9.23418 -19.9321,-3.10953 -18.7157,-3.43574 14.999,-4.02227 26.9742,-0.46927 28.7921,-0.78949 31.964,-5.63042 1.357,-2.07098 1.3834,-2.59355 0.2335,-4.62186 -1.7901,-3.15762 -6.0581,-4.41166 -22.2585,-6.54013 -7.6593,-1.00631 -14.7837,-2.28452 -15.832,-2.84045 -3.6915,-1.95771 -6.6681,-7.81209 -6.7875,-13.34987 -0.078,-3.60638 -2.1959,-7.17526 -4.2585,-7.17526 -0.7634,0 -2.7654,-0.65364 -4.449,-1.45254 -3.2571,-1.5456 -3.6236,-2.83975 -2.424,-8.55996 l 0.637,-3.0375 0.489,2.6546 c 0.4405,2.39144 1.035,2.79292 5.997,4.05 4.1494,1.05121 6.1114,2.11689 7.954,4.3204 5.1446,6.15199 5.0239,7.25543 4.7691,-43.61613 l -0.2331,-46.54113 -5.9884,-1.19151 -5.9885,-1.1915 -42.3865,19.54689 c -23.3126,10.75078 -42.3866,19.82945 -42.3866,20.17481 0,0.34536 4.3538,4.41707 9.675,9.04825 5.3213,4.63117 10.7888,9.50855 12.15,10.83859 l 2.475,2.41827 0,87.76408 0,87.76412 3.825,0.5002 c 6.3024,0.8243 42.2786,3.33 58.2329,4.056 26.8037,1.2196 31.5654,1.1082 35.856,-0.8391 z m 169.3861,-419.37121 c 10.9252,-2.03807 28.7182,-6.34924 34.474,-8.35294 2.9388,-1.0231 -0.639,-1.1409 -25.2517,-0.8317 -42.8504,0.5383 -74.6846,-1.6549 -95.1723,-6.5568 -19.0447,-4.5567 -34.8836,-10.8863 -64.0388,-25.5916 -11.4613,-5.7809 -20.3713,-9.8548 -19.8,-9.0532 2.1952,3.0801 13.9885,12.8753 21.6723,18.0004 25.3845,16.9314 58.8662,28.61627 96.4016,33.64329 13.9385,1.86676 38.1192,1.2788 51.7149,-1.25745 z"
         style="fill:#2d3e52;fill-opacity:1" />
    </g>
  </g>
</svg>
